<svg width="900" height="200" xmlns="http://www.w3.org/2000/svg">
  <defs>
    <linearGradient id="bg" x1="0" y1="0" x2="1" y2="1"><stop offset="0%" stop-color="#080a10"/><stop offset="50%" stop-color="#0c1220"/><stop offset="100%" stop-color="#080a10"/></linearGradient>
    <pattern id="grid" width="20" height="20" patternUnits="userSpaceOnUse"><rect width="20" height="20" fill="none" stroke="#1a2535" stroke-width="0.2"/></pattern>
  </defs>
  <rect width="900" height="200" fill="url(#bg)"/><rect width="900" height="200" fill="url(#grid)" opacity="0.4"/>
  <rect x="0" y="0" width="4" height="200" fill="#00d4ff" opacity="0.5"/>
  <text x="450" y="58" text-anchor="middle" font-family="Consolas,monospace" font-size="42" font-weight="700" fill="#00d4ff" letter-spacing="-1">APIShield</text>
  <text x="450" y="84" text-anchor="middle" font-family="sans-serif" font-size="14" fill="#8b949e">API Security Testing Framework</text>
  <text x="450" y="108" text-anchor="middle" font-family="sans-serif" font-size="11" fill="#484f58">OWASP API Security Top 10 (2023) — 10 test modules — On-premises deployable</text>
  <rect x="195" y="126" width="55" height="18" rx="3" fill="#00d4ff10" stroke="#00d4ff30" stroke-width="0.8"/><text x="222" y="138" text-anchor="middle" font-family="Consolas" font-size="8" font-weight="600" fill="#00d4ff">API1</text>
  <rect x="258" y="126" width="55" height="18" rx="3" fill="#00d4ff10" stroke="#00d4ff30" stroke-width="0.8"/><text x="285" y="138" text-anchor="middle" font-family="Consolas" font-size="8" font-weight="600" fill="#00d4ff">API2</text>
  <rect x="321" y="126" width="55" height="18" rx="3" fill="#00d4ff10" stroke="#00d4ff30" stroke-width="0.8"/><text x="348" y="138" text-anchor="middle" font-family="Consolas" font-size="8" font-weight="600" fill="#00d4ff">API3</text>
  <rect x="384" y="126" width="55" height="18" rx="3" fill="#00d4ff10" stroke="#00d4ff30" stroke-width="0.8"/><text x="411" y="138" text-anchor="middle" font-family="Consolas" font-size="8" font-weight="600" fill="#00d4ff">API4</text>
  <rect x="447" y="126" width="55" height="18" rx="3" fill="#00d4ff10" stroke="#00d4ff30" stroke-width="0.8"/><text x="474" y="138" text-anchor="middle" font-family="Consolas" font-size="8" font-weight="600" fill="#00d4ff">API5</text>
  <rect x="510" y="126" width="55" height="18" rx="3" fill="#00d4ff10" stroke="#00d4ff30" stroke-width="0.8"/><text x="537" y="138" text-anchor="middle" font-family="Consolas" font-size="8" font-weight="600" fill="#00d4ff">API6-10</text>
  <rect x="573" y="126" width="60" height="18" rx="3" fill="#00d4ff10" stroke="#00d4ff30" stroke-width="0.8"/><text x="603" y="138" text-anchor="middle" font-family="Consolas" font-size="8" font-weight="600" fill="#00d4ff">SSRF</text>
  <rect x="641" y="126" width="75" height="18" rx="3" fill="#00d4ff10" stroke="#00d4ff30" stroke-width="0.8"/><text x="678" y="138" text-anchor="middle" font-family="Consolas" font-size="8" font-weight="600" fill="#00d4ff">Injection</text>
  <text x="450" y="173" text-anchor="middle" font-family="Consolas" font-size="9" fill="#484f58">Python 3.8+  |  941 lines  |  10 OWASP modules  |  JSON + HTML reports  |  Single-file  |  MIT License</text>
</svg>
