<svg width="900" height="200" xmlns="http://www.w3.org/2000/svg">
  <defs>
    <linearGradient id="bg" x1="0" y1="0" x2="1" y2="1"><stop offset="0%" stop-color="#060810"/><stop offset="50%" stop-color="#0c1220"/><stop offset="100%" stop-color="#060810"/></linearGradient>
    <pattern id="grid" width="20" height="20" patternUnits="userSpaceOnUse"><rect width="20" height="20" fill="none" stroke="#0d1a2e" stroke-width="0.2"/></pattern>
  </defs>
  <rect width="900" height="200" fill="url(#bg)"/>
  <rect width="900" height="200" fill="url(#grid)" opacity="0.5"/>
  <rect x="0" y="0" width="4" height="200" fill="#00d4ff" opacity="0.5"/>
  <text x="450" y="55" text-anchor="middle" font-family="Consolas,monospace" font-size="42" font-weight="700" fill="#00d4ff" letter-spacing="-1">APIShield</text>
  <text x="450" y="82" text-anchor="middle" font-family="sans-serif" font-size="14" fill="#7a8ea0">API Security Testing Framework</text>
  <text x="450" y="108" text-anchor="middle" font-family="sans-serif" font-size="11" fill="#4a5d70">OWASP API Security Top 10 (2023) — 10 automated modules — On-premises deployable</text>
  <rect x="165" y="126" width="55" height="18" rx="3" fill="#00d4ff08" stroke="#00d4ff25" stroke-width="0.8"/><text x="192" y="138" text-anchor="middle" font-family="Consolas" font-size="8" font-weight="600" fill="#00d4ff">BOLA</text>
  <rect x="228" y="126" width="48" height="18" rx="3" fill="#00d4ff08" stroke="#00d4ff25" stroke-width="0.8"/><text x="252" y="138" text-anchor="middle" font-family="Consolas" font-size="8" font-weight="600" fill="#00d4ff">Auth</text>
  <rect x="284" y="126" width="48" height="18" rx="3" fill="#00d4ff08" stroke="#00d4ff25" stroke-width="0.8"/><text x="308" y="138" text-anchor="middle" font-family="Consolas" font-size="8" font-weight="600" fill="#00d4ff">SSRF</text>
  <rect x="340" y="126" width="65" height="18" rx="3" fill="#00d4ff08" stroke="#00d4ff25" stroke-width="0.8"/><text x="372" y="138" text-anchor="middle" font-family="Consolas" font-size="8" font-weight="600" fill="#00d4ff">Injection</text>
  <rect x="413" y="126" width="48" height="18" rx="3" fill="#00d4ff08" stroke="#00d4ff25" stroke-width="0.8"/><text x="437" y="138" text-anchor="middle" font-family="Consolas" font-size="8" font-weight="600" fill="#00d4ff">CORS</text>
  <rect x="469" y="126" width="75" height="18" rx="3" fill="#00d4ff08" stroke="#00d4ff25" stroke-width="0.8"/><text x="506" y="138" text-anchor="middle" font-family="Consolas" font-size="8" font-weight="600" fill="#00d4ff">Rate Limit</text>
  <rect x="552" y="126" width="65" height="18" rx="3" fill="#00d4ff08" stroke="#00d4ff25" stroke-width="0.8"/><text x="584" y="138" text-anchor="middle" font-family="Consolas" font-size="8" font-weight="600" fill="#00d4ff">Inventory</text>
  <rect x="625" y="126" width="55" height="18" rx="3" fill="#00d4ff08" stroke="#00d4ff25" stroke-width="0.8"/><text x="652" y="138" text-anchor="middle" font-family="Consolas" font-size="8" font-weight="600" fill="#00d4ff">Mass</text>
  <rect x="688" y="126" width="55" height="18" rx="3" fill="#00d4ff08" stroke="#00d4ff25" stroke-width="0.8"/><text x="715" y="138" text-anchor="middle" font-family="Consolas" font-size="8" font-weight="600" fill="#00d4ff">Admin</text>
  <text x="450" y="174" text-anchor="middle" font-family="Consolas" font-size="9" fill="#4a5d70">Python 3.8+  |  10 OWASP modules  |  50+ endpoint discovery  |  JSON + HTML reports  |  On-premises  |  MIT License</text>
</svg>
